<svg width="16" height="16" viewBox="0 0 16 16" xmlns="http://www.w3.org/2000/svg" fill="none"><path d="M12.5 5.83c0 .107-.021.212-.062.309-.041.096-.101.181-.176.249l-3.857 3.451c-.115.105-.259.163-.408.163-.149 0-.293-.057-.408-.163l-3.857-3.572c-.131-.121-.214-.296-.229-.484-.016-.189.037-.377.146-.523.109-.146.266-.238.436-.255.17-.017.339.041.47.162l3.445 3.193 3.445-3.086c.094-.087.209-.143.331-.16.122-.017.245.005.356.064.111.059.204.151.269.267.065.116.099.25.097.386z" fill="#989898"/></svg>